<svg id="Capa_1" data-name="Capa 1" xmlns="http://www.w3.org/2000/svg" viewBox="0 0 277.17 486.13"><title>canned</title><path d="M274.09,73.54l3.08-6.8C277.17,23.4,204.29,0,138.59,0S0,23.4,0,66.74l3.08,8.65V406.64L0,419.38c0,43.35,72.9,66.75,138.59,66.75s138.58-23.4,138.58-66.75l-3.08-11.5ZM255.61,384.46v34.92c0,18.59-44.53,44.5-117,44.5s-117-25.91-117-44.5V251.77c2,.88,4.46,1.91,7.21,3,3,34.65,49.14,60.38,109.82,60.38,60.48,0,106.5-25.56,109.78-60.05,0,.15.06.29.06.43,2.41-1.28,4.81-2.61,7.19-4V384.46ZM47,251.22c0-19.69,39.19-41.72,91.63-41.72s91.62,22,91.62,41.72S191,292.93,138.59,292.93,47,270.91,47,251.22Zm91.63-140c-72.5,0-117-25.91-117-44.49s44.53-44.5,117-44.5,117,25.92,117,44.5S211.09,111.24,138.59,111.24ZM111,43.25,101.2,92.76l-4-.14,9.77-49.51Zm47,1.62-9.76,49.51-4.05-.15,9.75-49.5Zm-39.44-1.35L108.78,93l-2-.07,9.77-49.5ZM161.7,45l-9.77,49.5-2-.07,9.77-49.51Zm-12.14-.42-9.76,49.5-2-.07,9.77-49.5Zm-9.95-.34-9.77,49.5-2-.07,9.76-49.5Zm-12-.42-9.77,49.51-4-.14,9.77-49.5Zm17.7.62-9.76,49.5-4.06-.15,9.76-49.49ZM131,43.94l-9.78,49.5-2-.06L129,43.87Zm36.06,1.24-9.75,49.5-2-.06,9.76-49.51Zm9.1.31L166.43,95l-4.05-.14,9.76-49.5Zm1.35,0,2,.07-9.77,49.51-2-.07Z"/><path d="M83.37,251.05l8.62.27q-.85,8.06-4.63,12.45a12.41,12.41,0,0,1-9.87,4.39,13,13,0,0,1-10.35-5,20.53,20.53,0,0,1,.08-24.91,13.13,13.13,0,0,1,10.47-5.08,12.7,12.7,0,0,1,10.22,5,21.07,21.07,0,0,1,4,9.59l-8.82.71c-1-3.64-2.86-5.47-5.62-5.47a5.3,5.3,0,0,0-4.35,2.2,8.85,8.85,0,0,0-1.71,5.59,8.5,8.5,0,0,0,1.68,5.41,5.21,5.21,0,0,0,4.26,2.14,5.15,5.15,0,0,0,4.17-1.88A9.61,9.61,0,0,0,83.37,251.05Z"/><path d="M106.55,258.2v9.45a8.4,8.4,0,0,1-1.7.2,9.54,9.54,0,0,1-7.61-3.62,14.84,14.84,0,0,1,0-18,9.87,9.87,0,0,1,15.21-.23q2.83,3.45,2.83,9.44v11.93h-7.59V256.05a5.37,5.37,0,0,0-.78-3.07,2.41,2.41,0,0,0-2.09-1.15,2.61,2.61,0,0,0-2.07,1,4.11,4.11,0,0,0-.08,5,2.46,2.46,0,0,0,2,1A3,3,0,0,0,106.55,258.2Z"/><path d="M137.76,267.33h-7.59V253.59q0-2.1-1.44-2.1c-.94,0-1.42.7-1.42,2.1v13.74h-7.58V253.76a12.43,12.43,0,0,1,2.61-8,8,8,0,0,1,6.41-3.26,8.08,8.08,0,0,1,7,3.78c1.36,2,2,4.72,2,8.23Z"/><path d="M160.2,267.33h-7.58V253.59q0-2.1-1.44-2.1c-1,0-1.42.7-1.42,2.1v13.74h-7.58V253.76a12.43,12.43,0,0,1,2.61-8,8,8,0,0,1,6.41-3.26,8.07,8.07,0,0,1,7,3.78c1.37,2,2,4.72,2,8.23Z"/><path d="M184.5,256.64H173a7.78,7.78,0,0,1-.27-1.93,8.11,8.11,0,0,1,.37-2.39H177c-.27-1.81-1.11-2.71-2.53-2.71a2.63,2.63,0,0,0-2.31,1.45,7,7,0,0,0-.9,3.73,7.46,7.46,0,0,0,.87,3.83,2.56,2.56,0,0,0,2.26,1.46,2.9,2.9,0,0,0,2.19-1.36l4.32,6.25a9.6,9.6,0,0,1-6.72,2.85,9.49,9.49,0,0,1-7.56-3.64,14.77,14.77,0,0,1,0-18,9.56,9.56,0,0,1,7.59-3.68,9.26,9.26,0,0,1,7.4,3.6,13.44,13.44,0,0,1,3,8.87C184.58,255.29,184.55,255.86,184.5,256.64Z"/><path d="M200.09,234h7.58V254.3a15.67,15.67,0,0,1-2.43,9.1,10.41,10.41,0,0,1-3.56,3.23,9.12,9.12,0,0,1-4.43,1.19,9.6,9.6,0,0,1-7.62-3.66,13.42,13.42,0,0,1-3.11-9,13.62,13.62,0,0,1,3.09-8.92,9.2,9.2,0,0,1,7.3-3.76,20.22,20.22,0,0,1,2,.15v10.06a2.73,2.73,0,0,0-1.86-.88,2.53,2.53,0,0,0-2,1,3.83,3.83,0,0,0-.84,2.5,3.59,3.59,0,0,0,.87,2.43,2.65,2.65,0,0,0,2.09,1q2.93,0,2.92-4.85Z"/></svg>